# xmcd
#
# Track frame offsets: 
#        150
#        9791
#        22319
#        35446
#        46996
#        60125
#        73650
#        81980
#        91589
#        103359
#        113931
#        119816
#        134894
#        142170
#        154049
#
# Disc length: 2284 seconds
#
# Revision: 1
# Processed by: cddbd v1.5.2PL0 Copyright (c) Steve Scherf et al.
# Submitted via: ExactAudioCopy v0.95b3
#
DISCID=d508ea0f
DTITLE=Eugenio Bennato - Brigante Se More
DYEAR=1980
DGENRE=Folklore
TTITLE0=Brigante se more
TTITLE1=Canzone per Iuzzella*
TTITLE2=Vulusse addeventare nu brigante I
TTITLE3=Quanno sona la campana
TTITLE4=Quanno 'o sole e' dolce
TTITLE5=Moresca terza
TTITLE6=Vulesse addiventare nu brigrante II
TTITLE7=Quanno sona la campana
TTITLE8=Tema di Isabellina
TTITLE9=Canzone per Iuzzella
TTITLE10=Tema per flauto dolce
TTITLE11=Il cammino del brigante
TTITLE12=Il brigante Carmine Crocco
TTITLE13=Moresca terza*
TTITLE14=A la terra di Basilicata
EXTD=
EXTT0=
EXTT1=
EXTT2=
EXTT3=
EXTT4=
EXTT5=
EXTT6=
EXTT7=
EXTT8=
EXTT9=
EXTT10=
EXTT11=
EXTT12=
EXTT13=
EXTT14=
PLAYORDER=
